<mxfile host="app.diagrams.net" modified="2023-10-10T14:35:27.078Z" agent="Mozilla/5.0 (X11; Linux x86_64; rv:109.0) Gecko/20100101 Firefox/114.0" version="22.0.4" etag="Hln3cBuPGSMvGWlk9ifN" type="github">
  <diagram name="Page-1" id="W5mbrO7OpuzhUWkxqL1K">
    <mxGraphModel>
      <root>
        <mxCell id="0" />
        <mxCell id="1" parent="0" />
      </root>
    </mxGraphModel>
  </diagram>
</mxfile>
